<?xml version="1.0" standalone="no"?>
<!DOCTYPE svg PUBLIC "-//W3C//DTD SVG 1.1//EN"
  "http://www.w3.org/Graphics/SVG/1.1/DTD/svg11.dtd">
<svg width="21.527000427246094mm" height="41.450000762939446mm" viewBox="37.362998962402344 -74.62499999999999 21.527000427246094 41.450000762939446" xmlns="http://www.w3.org/2000/svg" version="1.1">
	<title>svgOutput</title>
	<desc>made with tinkercad</desc>
<path d="M 54.209999084472656 -65.55500030517577 L 54.184059143066406 -65.53600311279295 L 53.92599868774414 -65.3470001220703 L 53.61000061035156 -65.20500183105467 L 52.89699935913086 -65.20600128173827 L 51.93000030517578 -65.24999999999999 L 52.215999603271484 -64.94300079345702 L 52.41999816894531 -64.6949996948242 L 52.757999420166016 -64.0970001220703 L 53.04999923706055 -63.47499847412108 L 53.347999572753906 -62.44699859619139 L 53.572208404541016 -61.43999862670897 L 53.58000183105469 -61.40499877929686 L 53.64899826049805 -60.210998535156236 L 53.599998474121094 -59.034999847412095 L 53.358001708984375 -58.52799987792967 L 53.00221633911133 -57.99881744384764 L 52.9659538269043 -57.944877624511705 L 52.96240997314453 -57.939609527587876 L 52.96200180053711 -57.938999176025376 L 52.987998962402344 -57.92100143432616 L 53.0099983215332 -57.90499877929686 L 53.49599838256836 -57.465000152587876 L 53.60792541503906 -57.34400177001952 L 53.939998626708984 -56.98500061035155 L 54.48699951171875 -56.039001464843736 L 54.9900016784668 -55.06499862670897 L 55.185001373291016 -54.560001373291 L 55.349998474121094 -54.0449981689453 L 55.426998138427734 -53.58200073242186 L 55.47999954223633 -53.11500167846678 L 55.49100112915039 -52.55899810791014 L 55.47999954223633 -52.00500106811522 L 55.44084930419922 -51.68017196655272 L 55.40599822998047 -51.39099884033202 L 55.29999923706055 -50.784999847412095 L 55.10599899291992 -50.27299880981444 L 54.8836669921875 -49.783081054687486 L 54.880001068115234 -49.77500152587889 L 54.66899871826172 -49.47700119018553 L 54.459999084472656 -49.17900085449217 L 54.44941329956055 -49.15200042724608 L 54.41999816894531 -49.076999664306626 L 54.40687561035156 -49.03434753417967 L 54.381309509277344 -48.951259613037095 L 54.375999450683594 -48.93399810791014 L 54.659000396728516 -48.79100036621092 L 54.86000061035156 -48.67499923706053 L 55.435001373291016 -48.21900177001952 L 55.959999084472656 -47.71500015258788 L 56.486000061035156 -46.81000137329101 L 56.95000076293945 -45.86500167846679 L 57.375999450683594 -44.69800186157226 L 57.75 -43.51499938964843 L 57.834999084472656 -42.91299819946288 L 57.880001068115234 -42.305000305175774 L 57.88999938964844 -41.20800018310546 L 57.88319396972656 -40.95999908447265 L 57.86000061035156 -40.11500167846679 L 57.72600173950195 -39.47000122070312 L 57.54999923706055 -38.83499908447265 L 57.345001220703125 -38.32300186157226 L 57.34400177001953 -38.32088088989257 L 57.11000061035156 -37.825000762939446 L 56.75400161743164 -37.27399826049804 L 56.36000061035156 -36.75500106811523 L 55.51900100708008 -36.006999969482415 L 54.63999938964844 -35.305000305175774 L 54.125 -35.02700042724609 L 53.59000015258789 -34.7849998474121 L 52.96500015258789 -34.55699920654296 L 52.33000183105469 -34.36500167846679 L 51.507999420166016 -34.24599838256835 L 50.68000030517578 -34.17499923706054 L 49.1609992980957 -34.18399810791015 L 49.152000427246094 -34.18454360961913 L 47.650001525878906 -34.2750015258789 L 45.87300109863281 -34.713001251220696 L 44.119998931884766 -35.24499893188476 L 43.27399826049805 -35.63800048828124 L 42.459999084472656 -36.09500122070312 L 41.55099868774414 -36.79299926757812 L 40.70000076293945 -37.555000305175774 L 40.119998931884766 -38.40499877929687 L 39.61000061035156 -39.305000305175774 L 39.242000579833984 -40.26499938964843 L 39.013641357421875 -40.95999908447265 L 38.91999816894531 -41.24499893188476 L 38.625 -42.33000183105468 L 38.380001068115234 -43.42499923706054 L 38.362998962402344 -44.13899993896484 L 38.400001525878906 -44.85499954223632 L 38.50699996948242 -45.35800170898437 L 38.650001525878906 -45.85499954223632 L 38.85100173950195 -46.325000762939446 L 39.09000015258789 -46.7750015258789 L 39.49399948120117 -47.21699905395507 L 39.93000030517578 -47.634998321533196 L 40.36800003051758 -47.98400115966796 L 40.81999969482422 -48.31499862670897 L 40.959999084472656 -48.40192794799803 L 41.30799865722656 -48.618000030517564 L 41.810001373291016 -48.89500045776366 L 42.29800033569336 -49.08399963378905 L 42.509159088134766 -49.15200042724608 L 42.632015228271484 -49.19156646728514 L 42.754180908203125 -49.23090362548827 L 42.86129379272461 -49.265399932861314 L 42.88800048828125 -49.27399826049803 L 42.71200180053711 -49.52799987792967 L 42.599998474121094 -49.72499847412108 L 42.257999420166016 -50.8209991455078 L 42 -51.944999694824205 L 41.9900016784668 -52.58000183105467 L 42.040000915527344 -53.215000152587876 L 42.17900085449219 -53.70999908447264 L 42.36000061035156 -54.194999694824205 L 42.97600173950195 -55.38999938964842 L 43.630001068115234 -56.56499862670897 L 43.933998107910156 -56.95700073242186 L 44.27000045776367 -57.32500076293944 L 44.29237747192383 -57.34400177001952 L 44.34389877319336 -57.387748718261705 L 44.5489616394043 -57.56186676025389 L 44.7140007019043 -57.701999664306626 L 44.845359802246094 -57.80381011962889 L 44.976524353027344 -57.90546798706053 L 45.18344497680664 -58.06584167480467 L 45.22703552246094 -58.099628448486314 L 45.23958969116211 -58.10935592651366 L 45.24300003051758 -58.111999511718736 L 45.1510009765625 -58.16799926757811 L 45.08000183105469 -58.215000152587876 L 44.54600143432617 -58.633998870849595 L 44.040000915527344 -59.08499908447264 L 43.696998596191406 -59.51699829101561 L 43.38999938964844 -59.97499847412108 L 43.0369987487793 -60.70999908447264 L 42.74983596801758 -61.43999862670897 L 42.7400016784668 -61.465000152587876 L 42.68899917602539 -62.050998687744126 L 42.689998626708984 -62.64500045776366 L 42.742000579833984 -63.15000152587889 L 42.84000015258789 -63.64500045776366 L 43.180999755859375 -64.33499908447264 L 43.58000183105469 -64.99500274658202 L 43.77199935913086 -65.20500183105467 L 43.999454498291016 -65.42197418212889 L 44.05400085449219 -65.47399902343749 L 42.840999603271484 -65.53399658203124 L 42.82032012939453 -65.53600311279295 L 41.900001525878906 -65.62499999999999 L 41.8204231262207 -65.68039703369139 L 41.617000579833984 -65.82199859619139 L 41.380001068115234 -66.08499908447264 L 41.292999267578125 -66.34899902343749 L 41.2599983215332 -66.62499999999999 L 41.37699890136719 -66.95899963378905 L 41.54999923706055 -67.26499938964842 L 41.84299850463867 -67.44200134277342 L 42.16999816894531 -67.55500030517577 L 42.68444061279297 -67.53952026367186 L 43.566001892089844 -67.51300048828124 L 44.970001220703125 -67.4250030517578 L 45.04199981689453 -67.41699981689452 L 45.055999755859375 -67.41517639160155 L 45.12625503540039 -67.40601348876952 L 45.13225555419922 -67.4052276611328 L 45.13282775878906 -67.40515136718749 L 45.13399887084961 -67.40499877929686 L 45.13325881958008 -67.4242477416992 L 45.13100051879883 -67.48300170898436 L 45.130001068115234 -67.5449981689453 L 45.167999267578125 -68.95500183105467 L 45.18336486816406 -69.63200378417967 L 45.19327163696289 -70.06851959228514 L 45.20000076293945 -70.36499786376952 L 45.09600067138672 -71.47000122070311 L 45.055999755859375 -72.0463180541992 L 45.02000045776367 -72.56500244140624 L 45.055999755859375 -72.64246368408202 L 45.165000915527344 -72.87699890136717 L 45.369998931884766 -73.16500091552733 L 45.53099822998047 -73.27100372314452 L 45.709999084472656 -73.35500335693358 L 46.05100631713867 -73.46580505371092 L 46.106998443603516 -73.48400115966795 L 46.261985778808594 -73.5266876220703 L 46.5099983215332 -73.59500122070311 L 46.75400161743164 -73.62100219726561 L 46.97034454345703 -73.62451934814452 L 47 -73.62499999999999 L 47.409000396728516 -73.53700256347655 L 47.66537857055664 -73.48584747314452 L 47.81999969482422 -73.45500183105467 L 48.965999603271484 -73.44799804687499 L 49.152000427246094 -73.44258880615233 L 50.099998474121094 -73.41500091552733 L 50.38600158691406 -73.24999999999999 L 50.63999938964844 -73.02500152587889 L 50.99599838256836 -72.51100158691405 L 51.14767074584961 -72.2600860595703 L 51.184791564941406 -72.19867706298827 L 51.31999969482422 -71.97499847412108 L 51.35599899291992 -71.81800079345702 L 51.367984771728516 -71.67847442626952 L 51.369998931884766 -71.65499877929686 L 51.36899948120117 -70.21499633789061 L 51.369998931884766 -68.77500152587889 L 51.404998779296875 -68.12799835205077 L 51.453617095947266 -67.34729766845702 L 51.457000732421875 -67.29299926757811 L 52.72999954223633 -67.23899841308592 L 53.24800109863281 -67.19504547119139 L 53.720001220703125 -67.15499877929686 L 54.02299880981445 -66.98200225830077 L 54.279998779296875 -66.74500274658202 L 54.38399887084961 -66.41300201416014 L 54.43000030517578 -66.06500244140624 L 54.345001220703125 -65.7990036010742 L 54.209999084472656 -65.55500030517577 z" fill="none" stroke="rgb(255,0,0)" stroke-width="0.001mm" />
</svg>